<svg xmlns="http://www.w3.org/2000/svg" xmlns:xlink="http://www.w3.org/1999/xlink" width="100" zoomAndPan="magnify" viewBox="0 0 75 37.5" height="50" preserveAspectRatio="xMidYMid meet" version="1.0"><defs><g/><clipPath id="951bfc7d3a"><path d="M 0.492188 4.011719 L 29 4.011719 L 29 28 L 0.492188 28 Z M 0.492188 4.011719 " clip-rule="nonzero"/></clipPath><clipPath id="a7baf8b934"><path d="M 5.902344 9.507812 L 33.566406 9.507812 L 33.566406 32.875 L 5.902344 32.875 Z M 5.902344 9.507812 " clip-rule="nonzero"/></clipPath></defs><g clip-path="url(#951bfc7d3a)"><path fill="#004aad" d="M 23.507812 4.546875 L 23.507812 19.75 C 23.507812 19.75 17.855469 8.347656 11.183594 6.585938 C 4.238281 4.753906 0.492188 9.152344 0.492188 9.152344 C 0.492188 9.152344 10.476562 4.027344 16.558594 15.394531 C 23.304688 27.996094 28.144531 27.996094 28.144531 27.996094 L 28.144531 9.183594 C 28.144531 6.625 26.070312 4.546875 23.507812 4.546875 " fill-opacity="1" fill-rule="nonzero"/></g><g clip-path="url(#a7baf8b934)"><path fill="#38b6ff" d="M 10.550781 32.984375 L 10.550781 17.785156 C 10.550781 17.785156 16.207031 29.183594 22.878906 30.945312 C 29.820312 32.777344 33.566406 28.378906 33.566406 28.378906 C 33.566406 28.378906 23.585938 33.507812 17.503906 22.140625 C 10.757812 9.535156 5.917969 9.535156 5.917969 9.535156 L 5.917969 28.351562 C 5.917969 30.910156 7.992188 32.984375 10.550781 32.984375 " fill-opacity="1" fill-rule="nonzero"/></g><g fill="#ffffff" fill-opacity="1"><g transform="translate(40.077351, 22.203947)"><g><path d="M 4 -8.15625 C 4 -8.1875 4.015625 -8.21875 4.046875 -8.25 C 4.078125 -8.28125 4.109375 -8.296875 4.140625 -8.296875 L 5.21875 -8.296875 C 5.257812 -8.296875 5.289062 -8.28125 5.3125 -8.25 C 5.34375 -8.21875 5.359375 -8.1875 5.359375 -8.15625 L 5.359375 -0.140625 C 5.359375 -0.0976562 5.34375 -0.0625 5.3125 -0.03125 C 5.289062 -0.0078125 5.257812 0 5.21875 0 L 3.984375 0 C 3.898438 0 3.847656 -0.0390625 3.828125 -0.125 L 2.0625 -5.140625 C 2.050781 -5.160156 2.035156 -5.164062 2.015625 -5.15625 C 1.992188 -5.15625 1.984375 -5.144531 1.984375 -5.125 L 2 -0.140625 C 2 -0.0976562 1.984375 -0.0625 1.953125 -0.03125 C 1.929688 -0.0078125 1.898438 0 1.859375 0 L 0.78125 0 C 0.738281 0 0.703125 -0.0078125 0.671875 -0.03125 C 0.648438 -0.0625 0.640625 -0.0976562 0.640625 -0.140625 L 0.640625 -8.15625 C 0.640625 -8.1875 0.648438 -8.21875 0.671875 -8.25 C 0.703125 -8.28125 0.738281 -8.296875 0.78125 -8.296875 L 2 -8.296875 C 2.082031 -8.296875 2.132812 -8.253906 2.15625 -8.171875 L 3.9375 -3.1875 C 3.9375 -3.164062 3.945312 -3.15625 3.96875 -3.15625 C 3.988281 -3.15625 4 -3.171875 4 -3.203125 Z M 4 -8.15625 "/></g></g></g><g fill="#ffffff" fill-opacity="1"><g transform="translate(48.887888, 22.203947)"><g><path d="M 3.640625 -8.15625 C 3.640625 -8.1875 3.648438 -8.21875 3.671875 -8.25 C 3.703125 -8.28125 3.738281 -8.296875 3.78125 -8.296875 L 4.875 -8.296875 C 4.90625 -8.296875 4.9375 -8.28125 4.96875 -8.25 C 5 -8.21875 5.015625 -8.1875 5.015625 -8.15625 L 5.015625 -0.140625 C 5.015625 -0.0976562 5 -0.0625 4.96875 -0.03125 C 4.9375 -0.0078125 4.90625 0 4.875 0 L 3.78125 0 C 3.738281 0 3.703125 -0.0078125 3.671875 -0.03125 C 3.648438 -0.0625 3.640625 -0.0976562 3.640625 -0.140625 L 3.640625 -3.5 C 3.640625 -3.53125 3.617188 -3.546875 3.578125 -3.546875 L 2.078125 -3.546875 C 2.035156 -3.546875 2.015625 -3.53125 2.015625 -3.5 L 2.015625 -0.140625 C 2.015625 -0.0976562 2 -0.0625 1.96875 -0.03125 C 1.945312 -0.0078125 1.914062 0 1.875 0 L 0.78125 0 C 0.738281 0 0.703125 -0.0078125 0.671875 -0.03125 C 0.648438 -0.0625 0.640625 -0.0976562 0.640625 -0.140625 L 0.640625 -8.15625 C 0.640625 -8.1875 0.648438 -8.21875 0.671875 -8.25 C 0.703125 -8.28125 0.738281 -8.296875 0.78125 -8.296875 L 1.875 -8.296875 C 1.914062 -8.296875 1.945312 -8.28125 1.96875 -8.25 C 2 -8.21875 2.015625 -8.1875 2.015625 -8.15625 L 2.015625 -4.8125 C 2.015625 -4.769531 2.035156 -4.75 2.078125 -4.75 L 3.578125 -4.75 C 3.617188 -4.75 3.640625 -4.769531 3.640625 -4.8125 Z M 3.640625 -8.15625 "/></g></g></g><g fill="#ffffff" fill-opacity="1"><g transform="translate(57.343165, 22.203947)"><g><path d="M 2.828125 0.09375 C 2.148438 0.09375 1.609375 -0.125 1.203125 -0.5625 C 0.796875 -1 0.59375 -1.578125 0.59375 -2.296875 L 0.59375 -8.15625 C 0.59375 -8.1875 0.601562 -8.21875 0.625 -8.25 C 0.65625 -8.28125 0.691406 -8.296875 0.734375 -8.296875 L 1.828125 -8.296875 C 1.867188 -8.296875 1.898438 -8.28125 1.921875 -8.25 C 1.953125 -8.21875 1.96875 -8.1875 1.96875 -8.15625 L 1.96875 -2.15625 C 1.96875 -1.84375 2.046875 -1.585938 2.203125 -1.390625 C 2.359375 -1.191406 2.566406 -1.09375 2.828125 -1.09375 C 3.085938 -1.09375 3.296875 -1.191406 3.453125 -1.390625 C 3.609375 -1.585938 3.6875 -1.84375 3.6875 -2.15625 L 3.6875 -8.15625 C 3.6875 -8.1875 3.703125 -8.21875 3.734375 -8.25 C 3.765625 -8.28125 3.800781 -8.296875 3.84375 -8.296875 L 4.921875 -8.296875 C 4.960938 -8.296875 4.992188 -8.28125 5.015625 -8.25 C 5.046875 -8.21875 5.0625 -8.1875 5.0625 -8.15625 L 5.0625 -2.296875 C 5.0625 -1.578125 4.859375 -1 4.453125 -0.5625 C 4.046875 -0.125 3.503906 0.09375 2.828125 0.09375 Z M 2.828125 0.09375 "/></g></g></g><g fill="#ffffff" fill-opacity="1"><g transform="translate(65.810277, 22.203947)"><g><path d="M 4.890625 -8.296875 C 4.929688 -8.296875 4.960938 -8.28125 4.984375 -8.25 C 5.015625 -8.21875 5.03125 -8.1875 5.03125 -8.15625 L 5.03125 -7.25 C 5.03125 -7.207031 5.015625 -7.171875 4.984375 -7.140625 C 4.960938 -7.117188 4.929688 -7.109375 4.890625 -7.109375 L 3.390625 -7.109375 C 3.347656 -7.109375 3.328125 -7.085938 3.328125 -7.046875 L 3.328125 -0.140625 C 3.328125 -0.0976562 3.3125 -0.0625 3.28125 -0.03125 C 3.257812 -0.0078125 3.226562 0 3.1875 0 L 2.09375 0 C 2.050781 0 2.015625 -0.0078125 1.984375 -0.03125 C 1.960938 -0.0625 1.953125 -0.0976562 1.953125 -0.140625 L 1.953125 -7.046875 C 1.953125 -7.085938 1.929688 -7.109375 1.890625 -7.109375 L 0.46875 -7.109375 C 0.4375 -7.109375 0.40625 -7.117188 0.375 -7.140625 C 0.34375 -7.171875 0.328125 -7.207031 0.328125 -7.25 L 0.328125 -8.15625 C 0.328125 -8.1875 0.34375 -8.21875 0.375 -8.25 C 0.40625 -8.28125 0.4375 -8.296875 0.46875 -8.296875 Z M 4.890625 -8.296875 "/></g></g></g></svg>